[Header]
FileType HTR
DataType HTRS
FileVersion 1
NumSegments 64
NumFrames 3
DataFrameRate 24
EulerRotationOrder ZYX
CalibrationUnits mm
RotationUnits Degrees
GlobalAxisofGravity Y
BoneLengthAxis Y
ScaleFactor 1.0
[SegmentNames&Hierarchy]
Hips	GLOBAL
Spine	Hips
Spine1	Spine
Spine2	Spine1
Neck	Spine2
Head	Neck
LeftEye	Head
RightEye	Head
LeftShoulder	Spine2
LeftArm	LeftShoulder
LeftForeArm	LeftArm
LeftHand	LeftForeArm
LeftHandThumb1	LeftHand
LeftHandThumb2	LeftHandThumb1
LeftHandThumb3	LeftHandThumb2
LeftHandThumb4	LeftHandThumb3
LeftHandIndex1	LeftHand
LeftHandIndex2	LeftHandIndex1
LeftHandIndex3	LeftHandIndex2
LeftHandIndex4	LeftHandIndex3
LeftHandMiddle1	LeftHand
LeftHandMiddle2	LeftHandMiddle1
LeftHandMiddle3	LeftHandMiddle2
LeftHandMiddle4	LeftHandMiddle3
LeftHandRing1	LeftHand
LeftHandRing2	LeftHandRing1
LeftHandRing3	LeftHandRing2
LeftHandRing4	LeftHandRing3
LeftHandPinky1	LeftHand
LeftHandPinky2	LeftHandPinky1
LeftHandPinky3	LeftHandPinky2
LeftHandPinky4	LeftHandPinky3
RightShoulder	Spine2
RightArm	RightShoulder
RightForeArm	RightArm
RightHand	RightForeArm
RightHandPinky1	RightHand
RightHandPinky2	RightHandPinky1
RightHandPinky3	RightHandPinky2
RightHandPinky4	RightHandPinky3
RightHandRing1	RightHand
RightHandRing2	RightHandRing1
RightHandRing3	RightHandRing2
RightHandRing4	RightHandRing3
RightHandMiddle1	RightHand
RightHandMiddle2	RightHandMiddle1
RightHandMiddle3	RightHandMiddle2
RightHandMiddle4	RightHandMiddle3
RightHandIndex1	RightHand
RightHandIndex2	RightHandIndex1
RightHandIndex3	RightHandIndex2
RightHandIndex4	RightHandIndex3
RightHandThumb1	RightHand
RightHandThumb2	RightHandThumb1
RightHandThumb3	RightHandThumb2
RightHandThumb4	RightHandThumb3
LeftUpLeg	Hips
LeftLeg	LeftUpLeg
LeftFoot	LeftLeg
LeftToeBase	LeftFoot
RightUpLeg	Hips
RightLeg	RightUpLeg
RightFoot	RightLeg
RightToeBase	RightFoot
[BasePosition]
Hips	0	0	0	0	0	0	1
Spine	0	0	0	0	0	0	1
Spine1	0	0	0	0	0	0	1
Spine2	0	0	0	0	0	0	1
Neck	0	0	0	0	0	0	1
Head	0	0	0	0	0	0	1
LeftEye	0	0	0	0	0	0	1
RightEye	0	0	0	0	0	0	1
LeftShoulder	0	0	0	0	0	0	1
LeftArm	0	0	0	0	0	0	1
LeftForeArm	0	0	0	0	0	0	1
LeftHand	0	0	0	0	0	0	1
LeftHandThumb1	0	0	0	0	0	0	1
LeftHandThumb2	0	0	0	0	0	0	1
LeftHandThumb3	0	0	0	0	0	0	1
LeftHandThumb4	0	0	0	0	0	0	1
LeftHandIndex1	0	0	0	0	0	0	1
LeftHandIndex2	0	0	0	0	0	0	1
LeftHandIndex3	0	0	0	0	0	0	1
LeftHandIndex4	0	0	0	0	0	0	1
LeftHandMiddle1	0	0	0	0	0	0	1
LeftHandMiddle2	0	0	0	0	0	0	1
LeftHandMiddle3	0	0	0	0	0	0	1
LeftHandMiddle4	0	0	0	0	0	0	1
LeftHandRing1	0	0	0	0	0	0	1
LeftHandRing2	0	0	0	0	0	0	1
LeftHandRing3	0	0	0	0	0	0	1
LeftHandRing4	0	0	0	0	0	0	1
LeftHandPinky1	0	0	0	0	0	0	1
LeftHandPinky2	0	0	0	0	0	0	1
LeftHandPinky3	0	0	0	0	0	0	1
LeftHandPinky4	0	0	0	0	0	0	1
RightShoulder	0	0	0	0	0	0	1
RightArm	0	0	0	0	0	0	1
RightForeArm	0	0	0	0	0	0	1
RightHand	0	0	0	0	0	0	1
RightHandPinky1	0	0	0	0	0	0	1
RightHandPinky2	0	0	0	0	0	0	1
RightHandPinky3	0	0	0	0	0	0	1
RightHandPinky4	0	0	0	0	0	0	1
RightHandRing1	0	0	0	0	0	0	1
RightHandRing2	0	0	0	0	0	0	1
RightHandRing3	0	0	0	0	0	0	1
RightHandRing4	0	0	0	0	0	0	1
RightHandMiddle1	0	0	0	0	0	0	1
RightHandMiddle2	0	0	0	0	0	0	1
RightHandMiddle3	0	0	0	0	0	0	1
RightHandMiddle4	0	0	0	0	0	0	1
RightHandIndex1	0	0	0	0	0	0	1
RightHandIndex2	0	0	0	0	0	0	1
RightHandIndex3	0	0	0	0	0	0	1
RightHandIndex4	0	0	0	0	0	0	1
RightHandThumb1	0	0	0	0	0	0	1
RightHandThumb2	0	0	0	0	0	0	1
RightHandThumb3	0	0	0	0	0	0	1
RightHandThumb4	0	0	0	0	0	0	1
LeftUpLeg	0	0	0	0	0	0	1
LeftLeg	0	0	0	0	0	0	1
LeftFoot	0	0	0	0	0	0	1
LeftToeBase	0	0	0	0	0	0	1
RightUpLeg	0	0	0	0	0	0	1
RightLeg	0	0	0	0	0	0	1
RightFoot	0	0	0	0	0	0	1
RightToeBase	0	0	0	0	0	0	1
[Hips]
18	1428.729126	973.9081421	-24.61542511	65.08187103	88.40090942	63.42546463	1.0
19	1516.751099	966.4984131	-18.82879066	-24.98466682	89.21828461	-26.15757751	1.0
20	1602.993652	968.5521851	-11.95366287	-61.57898712	86.85408783	-62.10921478	1.0
[Spine]
18	0	101.8159943	1.315000057	3.307661295	-13.07805347	-1.142236948	1.0
19	0	101.8159943	1.315000057	3.258690357	-13.41306305	0.5317516923	1.0
20	0	101.8159943	1.315000057	3.486075163	-13.40838337	2.594748735	1.0
[Spine1]
18	0	100.8349991	-10.00800037	0.7136484385	-17.22847366	1.669637084	1.0
19	0	100.8349991	-10.00800037	0.8478742242	-17.34265518	1.795675039	1.0
20	0	100.8349991	-10.00800037	1.103248	-17.3241024	2.009950638	1.0
[Spine2]
18	0	91	-13.73399925	0.4564114809	-17.18813515	2.046661377	1.0
19	0	91	-13.73399925	0.5904396772	-17.3042717	2.165006638	1.0
20	0	91	-13.73399925	0.843636632	-17.28943634	2.37005353	1.0
[Neck]
18	0	166.7169952	-25.16200066	3.2368958	-4.805233955	-0.3212125599	1.0
19	0	166.7169952	-25.16200066	2.979675293	-4.695967674	-0.5444751978	1.0
20	0	166.7169952	-25.16200066	2.868245363	-4.650094032	-0.4859412313	1.0
[Head]
18	0	96.17900085	16.84999847	-15.45777798	-35.75527191	9.540021896	1.0
19	0	96.17900085	16.84999847	-15.05744553	-35.54354095	9.013409615	1.0
20	0	96.17900085	16.84999847	-15.06957245	-35.16794205	8.869539261	1.0
[LeftEye]
18	30.6760006	64.09500122	92.83599854	0	0	0	1.0
19	30.6760006	64.09500122	92.83599854	0	0	0	1.0
20	30.6760006	64.09500122	92.83599854	0	0	0	1.0
[RightEye]
18	-30.6760006	64.09500122	92.83499908	0	0	0	1.0
19	-30.6760006	64.09500122	92.83499908	0	0	0	1.0
20	-30.6760006	64.09500122	92.83499908	0	0	0	1.0
[LeftShoulder]
18	45.70400238	109.4599991	-26.28000069	7.528272629	-25.30708313	-17.17325401	1.0
19	45.70400238	109.4599991	-26.28000069	7.409497261	-24.51590538	-17.14163208	1.0
20	45.70400238	109.4599991	-26.28000069	7.105028629	-23.22245979	-16.59165382	1.0
[LeftArm]
18	105.923996	-5.24600029	-22.32099915	15.80233669	-16.29687119	-42.0292244	1.0
19	105.923996	-5.24600029	-22.32099915	12.99444103	-16.94591904	-41.27056122	1.0
20	105.923996	-5.24600029	-22.32099915	8.972160339	-15.5614357	-44.32344818	1.0
[LeftForeArm]
18	278.414978	-0.0009999999311	0	7.082699653e-07	-23.24124718	-0.0001818328601	1.0
19	278.414978	-0.0009999999311	0	-6.225577181e-06	-27.21216011	-0.0001993251499	1.0
20	278.414978	-0.0009999999311	0	-3.657980869e-07	-30.759058	-0.0001891193679	1.0
[LeftHand]
18	283.2879944	0	0	16.23967934	-5.154083729	-20.89198303	1.0
19	283.2879944	0	0	19.13842773	-10.69077778	-16.56565857	1.0
20	283.2879944	0	0	19.7454319	-17.73592758	-7.527886391	1.0
[LeftHandThumb1]
18	24.6609993	-15.75	26.8239994	8.247480392	3.042693615	1.807271838	1.0
19	24.6609993	-15.75	26.8239994	7.962147713	2.388749838	1.48691082	1.0
20	24.6609993	-15.75	26.8239994	7.710203171	1.802511454	1.203117132	1.0
[LeftHandThumb2]
18	32.29800034	-18.64699936	18.64699936	4.2585392	21.05805016	13.25255966	1.0
19	32.29800034	-18.64699936	18.64699936	4.075688839	20.34508896	12.15557384	1.0
20	32.29800034	-18.64699936	18.64699936	3.89307785	19.84909058	10.61192894	1.0
[LeftHandThumb3]
18	26.52600098	-15.31499958	15.31499958	4.310066223	12.44046497	1.001885533	1.0
19	26.52600098	-15.31499958	15.31499958	4.06336832	13.26026058	0.8342538476	1.0
20	26.52600098	-15.31499958	15.31499958	3.853157043	14.2098875	0.7028037906	1.0
[LeftHandThumb4]
18	19.54599953	-11.28499985	11.28499985	0	0	0	1.0
19	19.54599953	-11.28499985	11.28499985	0	0	0	1.0
20	19.54599953	-11.28499985	11.28499985	0	0	0	1.0
[LeftHandIndex1]
18	91.09299469	-5.170999527	22.60099792	-1.073585153	2.668094158	-18.28777122	1.0
19	91.09299469	-5.170999527	22.60099792	-1.296021104	2.538130045	-19.69831276	1.0
20	91.09299469	-5.170999527	22.60099792	-1.571687341	2.468221903	-21.52761078	1.0
[LeftHandIndex2]
18	36.76399994	0	0	-0.2473774403	1.90377152	-11.25459576	1.0
19	36.76399994	0	0	-0.2237768322	1.833977342	-10.5305357	1.0
20	36.76399994	0	0	-0.2005629987	1.762359023	-9.790763855	1.0
[LeftHandIndex3]
18	28.83100128	0	0	-0.1521208882	1.01853466	-12.33028984	1.0
19	28.83100128	0	0	-0.1370149851	0.9473466277	-11.6066494	1.0
20	28.83100128	0	0	-0.1225360483	0.8744627237	-10.86768341	1.0
[LeftHandIndex4]
18	23.92700005	0	0	0	0	0	1.0
19	23.92700005	0	0	0	0	0	1.0
20	23.92700005	0	0	0	0	0	1.0
[LeftHandMiddle1]
18	95.33399963	0	0	-3.554093599	7.119404316	-31.85794067	1.0
19	95.33399963	0	0	-3.65326333	6.592968464	-32.63848877	1.0
20	95.33399963	0	0	-3.804214954	6.152481079	-33.78699875	1.0
[LeftHandMiddle2]
18	36.98199844	0	0	-0.5581188202	2.593506098	-18.49588203	1.0
19	36.98199844	0	0	-0.5380723476	2.55505681	-18.0678463	1.0
20	36.98199844	0	0	-0.5207018256	2.521157503	-17.69187927	1.0
[LeftHandMiddle3]
18	29.50900078	0	0	-0.1620990783	1.539466023	-12.82144547	1.0
19	29.50900078	0	0	-0.1519649625	1.497932792	-12.39169502	1.0
20	29.50900078	0	0	-0.1433211863	1.461436033	-12.01496887	1.0
[LeftHandMiddle4]
18	28.3390007	0	0	0	0	0	1.0
19	28.3390007	0	0	0	0	0	1.0
20	28.3390007	0	0	0	0	0	1.0
[LeftHandRing1]
18	91.04499817	-0.4390000105	-18.65100098	-5.010361671	13.07513428	-41.05840683	1.0
19	91.04499817	-0.4390000105	-18.65100098	-5.045624733	12.65929604	-41.46126556	1.0
20	91.04499817	-0.4390000105	-18.65100098	-5.138476849	12.23418331	-42.27812195	1.0
[LeftHandRing2]
18	31.54000092	0	0	-0.3127403855	2.438304901	-21.4970665	1.0
19	31.54000092	0	0	-0.3017287552	2.406602383	-21.15843201	1.0
20	31.54000092	0	0	-0.2889140248	2.368851185	-20.75619125	1.0
[LeftHandRing3]
18	29.37700081	0	0	-0.06019521132	1.764439821	-17.90532684	1.0
19	29.37700081	0	0	-0.05325733125	1.732139111	-17.5733757	1.0
20	29.37700081	0	0	-0.04527086392	1.693645835	-17.17828369	1.0
[LeftHandRing4]
18	26.47500038	0	0	0	0	0	1.0
19	26.47500038	0	0	0	0	0	1.0
20	26.47500038	0	0	0	0	0	1.0
[LeftHandPinky1]
18	80.77799988	-4.887000084	-38.06099701	-6.915365219	15.77421761	-46.68012619	1.0
19	80.77799988	-4.887000084	-38.06099701	-6.822016239	15.19765472	-47.11863327	1.0
20	80.77799988	-4.887000084	-38.06099701	-6.821622372	14.75999928	-47.98609161	1.0
[LeftHandPinky2]
18	36	0	0	-0.8861246109	2.583828926	-29.3147049	1.0
19	36	0	0	-0.8505004644	2.527104378	-28.64409637	1.0
20	36	0	0	-0.8136431575	2.466811419	-27.93673706	1.0
[LeftHandPinky3]
18	21.14200211	0	0	-0.3338372111	2.33379674	-15.11361599	1.0
19	21.14200211	0	0	-0.3112126887	2.270579815	-14.44358158	1.0
20	21.14200211	0	0	-0.2881567478	2.203594685	-13.73683739	1.0
[LeftHandPinky4]
18	19.75699997	0	0	0	0	0	1.0
19	19.75699997	0	0	0	0	0	1.0
20	19.75699997	0	0	0	0	0	1.0
[RightShoulder]
18	-45.70000076	109.4620056	-26.28000069	3.378602505	-5.500757694	12.17314434	1.0
19	-45.70000076	109.4620056	-26.28000069	3.308543444	-5.993067741	11.69715691	1.0
20	-45.70000076	109.4620056	-26.28000069	3.380696774	-5.354489326	11.68747044	1.0
[RightArm]
18	-105.9280014	-5.248000145	-22.32099915	18.70585251	-14.16178226	62.29382706	1.0
19	-105.9280014	-5.248000145	-22.32099915	17.90158272	-18.44406128	62.08125687	1.0
20	-105.9280014	-5.248000145	-22.32099915	15.8573103	-19.40878868	61.841465	1.0
[RightForeArm]
18	-278.414978	0	0	-7.076581596e-07	20.99325562	1.034702746e-05	1.0
19	-278.414978	0	0	-4.79962091e-06	22.05058289	4.114638728e-07	1.0
20	-278.414978	0	0	-7.647534517e-07	22.37957573	1.111328174e-06	1.0
[RightHand]
18	-283.2879944	0	0.0009999999311	33.68593216	2.858998299	-0.7418542504	1.0
19	-283.2879944	0	0.0009999999311	23.46175766	-1.302629352	2.703089237	1.0
20	-283.2879944	0	0.0009999999311	19.18703842	-6.807257652	8.414554596	1.0
[RightHandPinky1]
18	-80.76699829	-4.885000229	-38.06000137	-5.494738102	-16.36313057	37.5725174	1.0
19	-80.76699829	-4.885000229	-38.06000137	-5.684964657	-16.42822838	38.25786972	1.0
20	-80.76699829	-4.885000229	-38.06000137	-5.683717728	-16.33889961	38.35911179	1.0
[RightHandPinky2]
18	-36	0	0.0009999999311	-0.6960899234	-2.262033701	25.59285736	1.0
19	-36	0	0.0009999999311	-0.7767071724	-2.404287815	27.22941017	1.0
20	-36	0	0.0009999999311	-0.7816212177	-2.412627935	27.32642555	1.0
[RightHandPinky3]
18	-21.14200211	0	0	-0.417252332	0.8962821364	13.03931808	1.0
19	-21.14200211	0	0	-0.4689700603	0.7438347936	14.64329243	1.0
20	-21.14200211	0	0	-0.4720066786	0.7352855802	14.73359489	1.0
[RightHandPinky4]
18	-19.75699997	0	0	0	0	0	1.0
19	-19.75699997	0	0	0	0	0	1.0
20	-19.75699997	0	0	0	0	0	1.0
[RightHandRing1]
18	-91.03599548	-0.4390000105	-18.65100098	-3.448981762	-13.54952526	29.46907425	1.0
19	-91.03599548	-0.4390000105	-18.65100098	-3.525047302	-13.49327564	30.06130028	1.0
20	-91.03599548	-0.4390000105	-18.65100098	-3.554985523	-13.44039059	30.30443764	1.0
[RightHandRing2]
18	-31.54000092	0	0	-0.2108662724	-2.117192268	18.10010147	1.0
19	-31.54000092	0	0	-0.2455115169	-2.233972311	19.32922173	1.0
20	-31.54000092	0	0	-0.2486544251	-2.24414897	19.43676949	1.0
[RightHandRing3]
18	-29.37700081	0	0	-0.0540022701	0.5860479474	12.76225567	1.0
19	-29.37700081	0	0	-0.07402189821	0.440979898	14.23256207	1.0
20	-29.37700081	0	0	-0.07597512752	0.4281465411	14.36284733	1.0
[RightHandRing4]
18	-26.47500038	0	0	0	0	0	1.0
19	-26.47500038	0	0	0	0	0	1.0
20	-26.47500038	0	0	0	0	0	1.0
[RightHandMiddle1]
18	-95.32500458	0	0	-1.81788218	-6.945477009	18.47968483	1.0
19	-95.32500458	0	0	-1.772166252	-7.030156136	18.09802628	1.0
20	-95.32500458	0	0	-1.785415292	-6.983663082	18.21028709	1.0
[RightHandMiddle2]
18	-36.98199844	0	0	-0.4082247317	-2.286983252	15.12919998	1.0
19	-36.98199844	0	0	-0.4513687193	-2.379999399	16.14134026	1.0
20	-36.98199844	0	0	-0.4549662173	-2.387560844	16.22407341	1.0
[RightHandMiddle3]
18	-29.50900078	0	0	-0.1742340028	-1.393076777	12.92385674	1.0
19	-29.50900078	0	0	-0.2037129402	-1.506078482	14.09796333	1.0
20	-29.50900078	0	0	-0.2063317895	-1.515645862	14.1972971	1.0
[RightHandMiddle4]
18	-28.3390007	0	0.0009999999311	0	0	0	1.0
19	-28.3390007	0	0.0009999999311	0	0	0	1.0
20	-28.3390007	0	0.0009999999311	0	0	0	1.0
[RightHandIndex1]
18	-91.08300018	-5.167999744	22.60099792	0.02744324505	-1.709166288	6.753338337	1.0
19	-91.08300018	-5.167999744	22.60099792	0.02985507436	-1.920692921	6.64342308	1.0
20	-91.08300018	-5.167999744	22.60099792	-0.001187173184	-2.02035141	6.782977104	1.0
[RightHandIndex2]
18	-36.76399994	0	0	-0.1665057391	-1.651050448	8.648082733	1.0
19	-36.76399994	0	0	-0.1938034892	-1.740745783	9.569564819	1.0
20	-36.76399994	0	0	-0.1970903426	-1.751252055	9.677783012	1.0
[RightHandIndex3]
18	-28.83100128	0	0	-0.2178437263	-0.0707244277	12.95808792	1.0
19	-28.83100128	0	0	-0.249897927	-0.2029204518	14.31044579	1.0
20	-28.83100128	0	0	-0.2537834942	-0.218058154	14.46600914	1.0
[RightHandIndex4]
18	-23.92700005	0	0	0	0	0	1.0
19	-23.92700005	0	0	0	0	0	1.0
20	-23.92700005	0	0	0	0	0	1.0
[RightHandThumb1]
18	-24.64799881	-15.72700024	26.82600021	10.23993587	-4.023397923	1.097859263	1.0
19	-24.64799881	-15.72700024	26.82600021	9.953807831	-4.647277355	0.295265913	1.0
20	-24.64799881	-15.72700024	26.82600021	9.553958893	-4.918882847	-0.3319086432	1.0
[RightHandThumb2]
18	-32.29800034	-18.64699936	18.64699936	2.617543936	-13.16837502	-12.58973694	1.0
19	-32.29800034	-18.64699936	18.64699936	3.49128437	-12.776474	-12.65871716	1.0
20	-32.29800034	-18.64699936	18.64699936	3.870651245	-12.59835815	-12.58608055	1.0
[RightHandThumb3]
18	-26.52600098	-15.31399918	15.31399918	2.990424395	-12.47363949	0.173444882	1.0
19	-26.52600098	-15.31399918	15.31399918	3.078384399	-12.72823334	0.2420354187	1.0
20	-26.52600098	-15.31399918	15.31399918	3.103610039	-12.80036259	0.2619888783	1.0
[RightHandThumb4]
18	-19.54599953	-11.28499985	11.28499985	0	0	0	1.0
19	-19.54599953	-11.28499985	11.28499985	0	0	0	1.0
20	-19.54599953	-11.28499985	11.28499985	0	0	0	1.0
[LeftUpLeg]
18	82.07800293	-67.51699829	-15.99599934	20.66858292	14.76459694	1.551565289	1.0
19	82.07800293	-67.51699829	-15.99599934	22.97532082	13.80060387	2.525209904	1.0
20	82.07800293	-67.51699829	-15.99599934	18.8207798	12.13308048	3.570323229	1.0
[LeftLeg]
18	0	-443.7049866	2.845999956	4.68139267	-6.982884884	-1.065371871	1.0
19	0	-443.7049866	2.845999956	8.568163872	-7.397999763	2.175383329	1.0
20	0	-443.7049866	2.845999956	23.91931725	-6.795593262	4.088242054	1.0
[LeftFoot]
18	0	-444.2789917	-29.8219986	-12.27690125	-4.112555981	2.317069054	1.0
19	0	-444.2789917	-29.8219986	-0.8103988767	-2.910143375	-2.913211107	1.0
20	0	-444.2789917	-29.8219986	8.493561745	0.5278870463	-7.791572571	1.0
[LeftToeBase]
18	0	-87.28699493	107.1060028	-17.84110451	7.674469089e-06	-4.347864433e-06	1.0
19	0	-87.28699493	107.1060028	-29.94540787	1.047143102	2.433820248	1.0
20	0	-87.28699493	107.1060028	-27.85795593	1.057654142	3.204241514	1.0
[RightUpLeg]
18	-82.07800293	-67.51699829	-15.99599934	-37.41691208	0.5422542691	4.655948639	1.0
19	-82.07800293	-67.51699829	-15.99599934	-36.27973938	1.87069881	7.163297653	1.0
20	-82.07800293	-67.51699829	-15.99599934	-32.54879761	3.823516369	10.29638195	1.0
[RightLeg]
18	0	-443.7049866	2.861999989	17.32417488	-3.140444279	-4.13644886	1.0
19	0	-443.7049866	2.861999989	20.08948708	-3.265808821	-4.33754921	1.0
20	0	-443.7049866	2.861999989	23.53480911	-3.813214064	-4.977327824	1.0
[RightFoot]
18	0	-444.2770081	-29.83799934	-10.52091599	-6.822539806	7.504768372	1.0
19	0	-444.2770081	-29.83799934	-4.825661659	-6.500785828	1.677479982	1.0
20	0	-444.2770081	-29.83799934	1.31772089	-6.840847492	-5.449945927	1.0
[RightToeBase]
18	0	-87.28699493	107.1060028	-3.363267422	-3.053988257e-05	-3.215829736e-07	1.0
19	0	-87.28699493	107.1060028	-5.35797739	1.445106477e-06	-6.492218745e-06	1.0
20	0	-87.28699493	107.1060028	-5.167461395	1.578880256e-05	-2.24412338e-06	1.0
[EndOfFile]
